<svg width="18" height="18" viewBox="0 0 18 18" fill="none" xmlns="http://www.w3.org/2000/svg">
<path d="M17.76 16.0802L12.96 11.2802C13.8 10.0802 14.28 8.76023 14.28 7.20023C14.28 3.36023 11.16 0.240234 7.31999 0.240234C3.35999 0.240234 0.23999 3.36023 0.23999 7.20023C0.23999 11.0402 3.35999 14.1602 7.19999 14.1602C8.75999 14.1602 10.08 13.6802 11.28 12.8402L16.08 17.6402L17.76 16.0802ZM7.19999 11.8802C4.67999 11.8802 2.51999 9.84023 2.51999 7.20023C2.51999 4.68023 4.67999 2.52023 7.19999 2.52023C9.71999 2.52023 11.88 4.68023 11.88 7.20023C11.88 9.84023 9.83999 11.8802 7.19999 11.8802Z" fill="white"/>
</svg>
