<svg width="18" height="17" viewBox="0 0 18 17" fill="none" xmlns="http://www.w3.org/2000/svg">
<path d="M9.00003 16.7598L1.56003 9.31983C-0.479971 7.27983 -0.479971 3.91982 1.56003 1.87982C2.52003 0.919824 3.84003 0.319824 5.28003 0.319824C6.72003 0.319824 7.92003 0.919824 9.00003 1.87982V1.99982C9.96003 1.03982 11.28 0.439824 12.72 0.439824C14.16 0.439824 15.36 1.03982 16.44 1.99982C18.48 4.03982 18.48 7.39982 16.44 9.43982L9.00003 16.7598ZM5.28003 2.83982C4.56003 2.83982 3.84003 3.07982 3.36003 3.67982C2.28003 4.75982 2.28003 6.55982 3.36003 7.63982L9.00003 13.3998L14.64 7.63982C15.72 6.55982 15.72 4.75982 14.64 3.67982C13.68 2.59982 11.76 2.59982 10.8 3.67982L9.00003 5.47982L7.20003 3.67982C6.72003 3.07982 6.00003 2.83982 5.28003 2.83982Z" fill="white"/>
</svg>
