<svg width="15" height="19" viewBox="0 0 15 19" fill="none" xmlns="http://www.w3.org/2000/svg">
<path d="M7.50003 0.633301C3.70003 0.633301 0.660034 3.6733 0.660034 7.4733C0.660034 8.86663 1.5467 10.7666 2.81337 12.54C4.9667 15.4533 7.50003 18.3666 7.50003 18.3666C7.50003 18.3666 10.0334 15.3266 12.1867 12.54C13.3267 10.7666 14.34 8.86663 14.34 7.4733C14.34 3.6733 11.3 0.633301 7.50003 0.633301ZM7.50003 10.64C5.7267 10.64 4.33337 9.11997 4.33337 7.4733C4.33337 5.69997 5.7267 4.30663 7.50003 4.30663C9.27337 4.30663 10.6667 5.69997 10.6667 7.4733C10.6667 9.24663 9.27337 10.64 7.50003 10.64Z" fill="white"/>
</svg>
