<svg width="37" height="40" viewBox="0 0 37 40" fill="none" xmlns="http://www.w3.org/2000/svg">
<path d="M33.6422 9.68221C33.6422 9.68221 32.0102 9.8277 31.7032 11.8403C31.7032 11.8403 31.7032 12.8911 32.1799 13.5862L32.3576 13.8368C32.3576 13.8368 32.4384 13.9499 32.3091 14.249L26.3547 28.0868L26.1608 28.4182C26.1608 28.4182 25.9508 28.7496 25.3852 28.5314C25.3852 28.5314 24.8924 28.3374 25.0055 27.4483L26.6375 15.5988L27.6878 8.5102C27.6878 8.5102 27.7444 8.23539 27.9625 8.17072C28.019 8.15456 28.0756 8.13031 28.1322 8.0899C28.4796 7.87974 29.4976 7.13612 29.546 5.85095C29.546 5.85095 29.7884 4.48495 28.6088 3.62817C27.7686 3.01388 26.6375 2.94113 25.7488 3.4746C25.2317 3.78175 24.755 4.31521 24.6419 5.25282C24.6419 5.25282 24.3914 6.31976 25.0055 7.22503C25.0055 7.22503 25.4337 7.73425 25.5468 7.81508C25.5468 7.81508 25.6761 7.92824 25.6437 8.06565L22.0727 24.8456C22.0727 24.8456 21.8222 25.864 20.9901 25.8802C20.9901 25.8802 20.4164 25.9934 20.3033 25.0234L19.8105 14.5238L19.3661 5.46298C19.3661 5.46298 19.4146 5.01842 19.7459 4.82443C19.7459 4.82443 20.9981 3.87066 20.6184 2.343C20.6184 2.343 20.2387 -0.0252652 17.5564 0.451622C17.5564 0.451622 15.5689 1.04167 16.1425 3.74133C16.1425 3.74133 16.3364 4.50112 17.0635 4.94567C17.0635 4.94567 17.5079 5.13966 17.5079 5.72163L16.8212 24.8214C16.8212 24.8214 16.8858 25.9368 15.8355 26.0095C15.8355 26.0095 15.2134 26.0742 14.8337 24.1343L11.1576 8.49404C11.1576 8.49404 10.9556 7.58876 11.4 7.1927C11.4 7.1927 12.8219 5.34173 11.2061 3.60393C11.2061 3.60393 9.85682 2.28642 8.07938 3.50693C8.07938 3.50693 6.81093 4.29905 7.31993 6.38442C7.31993 6.38442 7.44112 7.24928 8.54798 7.84741C8.54798 7.84741 9.18624 8.05756 9.23472 8.61528L11.4888 23.6574C11.4888 23.6574 11.9494 27.0926 11.8362 27.7716C11.8362 27.7716 11.9009 28.3778 11.2465 28.5637C11.2465 28.5637 10.7536 28.6769 10.2123 27.3109L4.62953 14.5481C4.62953 14.5481 4.28212 13.6751 4.62953 13.2791C4.62953 13.2791 5.94645 11.1695 3.93471 9.94086C3.93471 9.94086 2.48852 8.95476 1.01001 10.2399C1.01001 10.2399 -0.622007 11.7191 1.01001 13.5781C1.01001 13.5781 1.38973 14.0874 2.31077 14.3218C2.31077 14.3218 2.85208 14.3379 2.93288 14.928L7.66734 28.6849L10.3012 36.404C10.3012 36.404 10.5597 37.3417 10.7132 37.471C10.7132 37.471 11.1414 37.9317 12.5876 38.3924C12.5876 38.3924 15.9728 40.0737 20.2549 39.5564C20.2549 39.5564 23.0988 39.2896 25.7003 38.0449L26.1123 37.8105C26.1123 37.8105 26.3224 37.7296 26.4921 37.0507L29.1582 29.1214L32.0506 21.0143L33.7473 16.0434L34.0947 15.1866C34.0947 15.1866 34.2886 14.6612 34.8703 14.5319C34.8703 14.5319 36.6639 14.2005 36.6477 12.002C36.6639 12.002 36.5184 9.31849 33.6422 9.68221ZM20.7154 36.8244C20.7154 36.8244 16.2395 37.568 13.6622 35.9191C13.6622 35.9191 12.4422 35.2805 12.8381 33.6801C12.8381 33.6801 13.1289 32.9284 14.2358 32.5324C14.2358 32.5324 16.0456 31.4816 20.5376 31.91C20.5376 31.91 24.141 32.3222 24.1572 34.2136C24.1652 34.2217 24.7954 36.202 20.7154 36.8244Z" fill="url(#paint0_linear_1995_10756)" stroke="url(#paint1_linear_1995_10756)" stroke-width="0.0808283" stroke-miterlimit="10"/>
<path d="M33.7094 9.53792C33.7094 9.53792 32.0774 9.68341 31.7703 11.696C31.7703 11.696 31.7703 12.7468 32.247 13.4419L32.4248 13.6925C32.4248 13.6925 32.5056 13.8057 32.3763 14.1047L26.4219 27.9425L26.228 28.2739C26.228 28.2739 26.0179 28.6053 25.4523 28.3871C25.4523 28.3871 24.9595 28.1931 25.0726 27.304L26.7046 15.4546L27.7549 8.36591C27.7549 8.36591 27.8115 8.09109 28.0296 8.02643C28.0862 8.01026 28.272 7.8971 28.3286 7.86477C28.676 7.65462 29.5728 6.99183 29.6132 5.70666C29.6132 5.70666 29.8555 4.34066 28.676 3.48388C27.8357 2.86959 26.7046 2.79684 25.8159 3.33031C25.2988 3.63745 24.8222 4.17092 24.709 5.10853C24.709 5.10853 24.4586 6.17546 25.0726 7.08074C25.0726 7.08074 25.5008 7.58996 25.6139 7.67079C25.6139 7.67079 25.7432 7.78395 25.7109 7.92135L22.1398 24.7013C22.1398 24.7013 21.8894 25.7197 21.0572 25.7359C21.0572 25.7359 20.4836 25.8491 20.3705 24.8791L19.8776 14.3795L19.4333 5.31868C19.4333 5.31868 19.4818 4.87413 19.813 4.68014C19.813 4.68014 21.0653 3.72636 20.6856 2.19871C20.6856 2.19871 20.3786 -0.0887307 17.6962 0.388156C17.6962 0.388156 15.7006 0.889292 16.2743 3.58896C16.2743 3.58896 16.549 4.13859 17.1872 4.68822C17.1872 4.68822 17.575 4.99537 17.575 5.58542L16.8883 24.6851C16.8883 24.6851 16.9529 25.8006 15.9026 25.8733C15.9026 25.8733 15.2805 25.938 14.9008 23.9981L11.2247 8.34974C11.2247 8.34974 11.0227 7.44447 11.4671 7.04841C11.4671 7.04841 12.8891 5.19744 11.2732 3.45963C11.2732 3.45963 9.92396 2.14213 8.14652 3.36264C8.14652 3.36264 6.87807 4.15475 7.38707 6.24012C7.38707 6.24012 7.50826 7.10499 8.61512 7.70312C8.61512 7.70312 9.25338 7.91327 9.30186 8.47099L11.556 23.5131C11.556 23.5131 12.0165 26.9483 11.9034 27.6273C11.9034 27.6273 11.968 28.2335 11.3136 28.4194C11.3136 28.4194 10.8208 28.5326 10.2794 27.1666L4.69667 14.4038C4.69667 14.4038 4.34926 13.5308 4.69667 13.1348C4.69667 13.1348 6.01359 11.0252 4.00185 9.79657C4.00185 9.79657 2.55566 8.81046 1.07715 10.0956C1.07715 10.0956 -0.554868 11.5748 1.07715 13.4338C1.07715 13.4338 1.45687 13.9431 2.37791 14.1775C2.37791 14.1775 2.91922 14.1936 3.00002 14.7837L7.73448 28.5407L10.3683 36.2598C10.3683 36.2598 10.6269 37.1974 10.7804 37.3267C10.7804 37.3267 11.2086 37.7874 12.6548 38.2481C12.6548 38.2481 16.04 39.9294 20.322 39.4121C20.322 39.4121 23.1659 39.1453 25.7674 37.9006L26.1795 37.6662C26.1795 37.6662 26.3895 37.5853 26.5592 36.9064L29.2254 28.9771L32.1177 20.87L33.8144 15.8991L34.1618 15.0423C34.1618 15.0423 34.3557 14.5169 34.9374 14.3876C34.9374 14.3876 36.731 14.0562 36.7149 11.8577C36.731 11.8577 36.5856 9.17419 33.7094 9.53792ZM20.7825 36.6801C20.7825 36.6801 16.3066 37.4237 13.7293 35.7748C13.7293 35.7748 12.5093 35.1362 12.9052 33.5358C12.9052 33.5358 13.1961 32.7841 14.3029 32.3881C14.3029 32.3881 16.1127 31.3373 20.6048 31.7657C20.6048 31.7657 24.2081 32.1779 24.2243 34.0693C24.2324 34.0774 24.8626 36.0577 20.7825 36.6801Z" fill="url(#paint2_linear_1995_10756)" stroke="url(#paint3_linear_1995_10756)" stroke-width="0.0808283" stroke-miterlimit="10"/>
<path d="M33.6422 9.68221C33.6422 9.68221 32.0102 9.8277 31.7032 11.8403C31.7032 11.8403 31.7032 12.8911 32.1799 13.5862L32.3576 13.8368C32.3576 13.8368 32.4384 13.9499 32.3091 14.249L26.3547 28.0868L26.1608 28.4182C26.1608 28.4182 25.9508 28.7496 25.3852 28.5314C25.3852 28.5314 24.8924 28.3374 25.0055 27.4483L26.6375 15.5988L27.6878 8.5102C27.6878 8.5102 27.7444 8.23539 27.9625 8.17072C28.019 8.15456 28.0756 8.13031 28.1322 8.0899C28.4796 7.87974 29.4976 7.13612 29.546 5.85095C29.546 5.85095 29.7884 4.48495 28.6088 3.62817C27.7686 3.01388 26.6375 2.94113 25.7488 3.4746C25.2317 3.78175 24.755 4.31521 24.6419 5.25282C24.6419 5.25282 24.3914 6.31976 25.0055 7.22503C25.0055 7.22503 25.4337 7.73425 25.5468 7.81508C25.5468 7.81508 25.6761 7.92824 25.6437 8.06565L22.0727 24.8456C22.0727 24.8456 21.8222 25.864 20.9901 25.8802C20.9901 25.8802 20.4164 25.9934 20.3033 25.0234L19.8105 14.5238L19.3661 5.46298C19.3661 5.46298 19.4146 5.01842 19.7459 4.82443C19.7459 4.82443 20.9981 3.87066 20.6184 2.343C20.6184 2.343 20.2387 -0.0252652 17.5564 0.451622C17.5564 0.451622 15.5689 1.04167 16.1425 3.74133C16.1425 3.74133 16.3364 4.50112 17.0635 4.94567C17.0635 4.94567 17.5079 5.13966 17.5079 5.72163L16.8212 24.8214C16.8212 24.8214 16.8858 25.9368 15.8355 26.0095C15.8355 26.0095 15.2134 26.0742 14.8337 24.1343L11.1576 8.49404C11.1576 8.49404 10.9556 7.58876 11.4 7.1927C11.4 7.1927 12.8219 5.34173 11.2061 3.60393C11.2061 3.60393 9.85682 2.28642 8.07938 3.50693C8.07938 3.50693 6.81093 4.29905 7.31993 6.38442C7.31993 6.38442 7.44112 7.24928 8.54798 7.84741C8.54798 7.84741 9.18624 8.05756 9.23472 8.61528L11.4888 23.6574C11.4888 23.6574 11.9494 27.0926 11.8362 27.7716C11.8362 27.7716 11.9009 28.3778 11.2465 28.5637C11.2465 28.5637 10.7536 28.6769 10.2123 27.3109L4.62953 14.5481C4.62953 14.5481 4.28212 13.6751 4.62953 13.2791C4.62953 13.2791 5.94645 11.1695 3.93471 9.94086C3.93471 9.94086 2.48852 8.95476 1.01001 10.2399C1.01001 10.2399 -0.622007 11.7191 1.01001 13.5781C1.01001 13.5781 1.38973 14.0874 2.31077 14.3218C2.31077 14.3218 2.85208 14.3379 2.93288 14.928L7.66734 28.6849L10.3012 36.404C10.3012 36.404 10.5597 37.3417 10.7132 37.471C10.7132 37.471 11.1414 37.9317 12.5876 38.3924C12.5876 38.3924 15.9728 40.0737 20.2549 39.5564C20.2549 39.5564 23.0988 39.2896 25.7003 38.0449L26.1123 37.8105C26.1123 37.8105 26.3224 37.7296 26.4921 37.0507L29.1582 29.1214L32.0506 21.0143L33.7473 16.0434L34.0947 15.1866C34.0947 15.1866 34.2886 14.6612 34.8703 14.5319C34.8703 14.5319 36.6639 14.2005 36.6477 12.002C36.6639 12.002 36.5184 9.31849 33.6422 9.68221ZM20.7154 36.8244C20.7154 36.8244 16.2395 37.568 13.6622 35.9191C13.6622 35.9191 12.4422 35.2805 12.8381 33.6801C12.8381 33.6801 13.1289 32.9284 14.2358 32.5324C14.2358 32.5324 16.0456 31.4816 20.5376 31.91C20.5376 31.91 24.141 32.3222 24.1572 34.2136C24.1652 34.2217 24.7954 36.202 20.7154 36.8244Z" fill="url(#paint4_linear_1995_10756)" stroke="url(#paint5_linear_1995_10756)" stroke-width="0.0808283" stroke-miterlimit="10"/>
<path d="M33.6422 9.68221C33.6422 9.68221 32.0102 9.8277 31.7032 11.8403C31.7032 11.8403 31.7032 12.8911 32.1799 13.5862L32.3576 13.8368C32.3576 13.8368 32.4384 13.9499 32.3091 14.249L26.3547 28.0868L26.1608 28.4182C26.1608 28.4182 25.9508 28.7496 25.3852 28.5314C25.3852 28.5314 24.8924 28.3374 25.0055 27.4483L26.6375 15.5988L27.6878 8.5102C27.6878 8.5102 27.7444 8.23539 27.9625 8.17072C28.019 8.15456 28.0756 8.13031 28.1322 8.0899C28.4796 7.87974 29.4976 7.13612 29.546 5.85095C29.546 5.85095 29.7884 4.48495 28.6088 3.62817C27.7686 3.01388 26.6375 2.94113 25.7488 3.4746C25.2317 3.78175 24.755 4.31521 24.6419 5.25282C24.6419 5.25282 24.3914 6.31976 25.0055 7.22503C25.0055 7.22503 25.4337 7.73425 25.5468 7.81508C25.5468 7.81508 25.6761 7.92824 25.6437 8.06565L22.0727 24.8456C22.0727 24.8456 21.8222 25.864 20.9901 25.8802C20.9901 25.8802 20.4164 25.9934 20.3033 25.0234L19.8105 14.5238L19.3661 5.46298C19.3661 5.46298 19.4146 5.01842 19.7459 4.82443C19.7459 4.82443 20.9981 3.87066 20.6184 2.343C20.6184 2.343 20.2387 -0.0252652 17.5564 0.451622C17.5564 0.451622 15.5689 1.04167 16.1425 3.74133C16.1425 3.74133 16.3364 4.50112 17.0635 4.94567C17.0635 4.94567 17.5079 5.13966 17.5079 5.72163L16.8212 24.8214C16.8212 24.8214 16.8858 25.9368 15.8355 26.0095C15.8355 26.0095 15.2134 26.0742 14.8337 24.1343L11.1576 8.49404C11.1576 8.49404 10.9556 7.58876 11.4 7.1927C11.4 7.1927 12.8219 5.34173 11.2061 3.60393C11.2061 3.60393 9.85682 2.28642 8.07938 3.50693C8.07938 3.50693 6.81093 4.29905 7.31993 6.38442C7.31993 6.38442 7.44112 7.24928 8.54798 7.84741C8.54798 7.84741 9.18624 8.05756 9.23472 8.61528L11.4888 23.6574C11.4888 23.6574 11.9494 27.0926 11.8362 27.7716C11.8362 27.7716 11.9009 28.3778 11.2465 28.5637C11.2465 28.5637 10.7536 28.6769 10.2123 27.3109L4.62953 14.5481C4.62953 14.5481 4.28212 13.6751 4.62953 13.2791C4.62953 13.2791 5.94645 11.1695 3.93471 9.94086C3.93471 9.94086 2.48852 8.95476 1.01001 10.2399C1.01001 10.2399 -0.622007 11.7191 1.01001 13.5781C1.01001 13.5781 1.38973 14.0874 2.31077 14.3218C2.31077 14.3218 2.85208 14.3379 2.93288 14.928L7.66734 28.6849L10.3012 36.404C10.3012 36.404 10.5597 37.3417 10.7132 37.471C10.7132 37.471 11.1414 37.9317 12.5876 38.3924C12.5876 38.3924 15.9728 40.0737 20.2549 39.5564C20.2549 39.5564 23.0988 39.2896 25.7003 38.0449L26.1123 37.8105C26.1123 37.8105 26.3224 37.7296 26.4921 37.0507L29.1582 29.1214L32.0506 21.0143L33.7473 16.0434L34.0947 15.1866C34.0947 15.1866 34.2886 14.6612 34.8703 14.5319C34.8703 14.5319 36.6639 14.2005 36.6477 12.002C36.6639 12.002 36.5184 9.31849 33.6422 9.68221ZM20.7154 36.8244C20.7154 36.8244 16.2395 37.568 13.6622 35.9191C13.6622 35.9191 12.4422 35.2805 12.8381 33.6801C12.8381 33.6801 13.1289 32.9284 14.2358 32.5324C14.2358 32.5324 16.1323 31.3505 20.6347 31.8709C20.6347 31.8709 24.141 32.3222 24.1572 34.2136C24.1652 34.2217 24.7954 36.202 20.7154 36.8244Z" fill="url(#paint6_linear_1995_10756)" stroke="url(#paint7_linear_1995_10756)" stroke-width="0.0808283" stroke-miterlimit="10"/>
<path d="M2.48861 14.0145C3.68444 14.0145 4.65386 13.0447 4.65386 11.8483C4.65386 10.652 3.68444 9.68213 2.48861 9.68213C1.29278 9.68213 0.323364 10.652 0.323364 11.8483C0.323364 13.0447 1.29278 14.0145 2.48861 14.0145Z" fill="url(#paint8_radial_1995_10756)"/>
<path d="M8.00663 7.29779C6.98864 6.31976 6.99672 4.6062 7.91776 3.70901C8.82264 2.82798 10.3254 2.88456 11.303 3.86258C12.2806 4.84061 12.4906 6.03686 11.4565 7.24929C10.6324 8.20306 9.00038 8.25156 8.00663 7.29779Z" fill="url(#paint9_radial_1995_10756)"/>
<path d="M16.0939 2.81173C16.0939 1.47807 17.1361 0.411133 18.3642 0.411133C19.5922 0.411133 20.6344 1.50231 20.6344 2.83598C20.6344 4.16965 19.9962 5.31741 18.3642 5.31741C17.1361 5.30933 16.0939 4.24239 16.0939 2.81173Z" fill="url(#paint10_radial_1995_10756)"/>
<path d="M24.6256 5.26882C24.868 3.87049 26.1526 2.9248 27.5019 3.1592C28.843 3.3936 29.7398 4.71111 29.4974 6.10943C29.2551 7.50776 28.1078 8.4777 26.6212 8.21905C25.2801 7.97657 24.3671 6.78031 24.6256 5.26882Z" fill="url(#paint11_radial_1995_10756)"/>
<path d="M31.7759 11.6869C31.8082 10.3371 33.2705 9.47219 34.5955 9.69851C35.9205 9.92483 36.8093 11.1938 36.583 12.5194C36.3568 13.845 35.4115 14.7907 33.7634 14.5078C32.4384 14.2896 31.7435 13.3762 31.7759 11.6869Z" fill="url(#paint12_radial_1995_10756)"/>
<path d="M10.794 28.6852C10.794 28.6852 9.87294 26.9474 9.3801 25.6945L7.17446 20.7236L5.1708 15.9952C5.1708 15.9952 4.36287 14.2654 4.1932 13.6592C4.1932 13.6592 4.08817 13.2632 4.39519 12.6812C4.39519 12.6812 5.1304 11.6789 4.64564 10.9919C4.64564 10.9919 4.77491 11.493 4.41942 12.0265C4.41942 12.0265 3.83772 12.9318 3.81348 13.2793C3.81348 13.2793 3.78116 13.8532 4.24168 14.5564C4.24168 14.5564 4.81531 15.5425 4.9365 15.8658C4.9365 15.8658 9.6144 26.6483 9.63864 26.713C9.66288 26.7696 10.3739 28.4346 10.794 28.6852ZM11.2707 11.8972C11.2707 11.8972 13.3551 20.0851 13.4844 20.4084C13.4844 20.4084 14.5751 24.7327 14.7851 25.2015C14.7851 25.2015 15.1406 25.638 15.4961 25.8481C15.4961 25.8481 15.1002 25.3551 14.9306 24.5872L13.6298 19.0181L11.8685 12.0265C11.8685 12.0265 10.996 8.68019 10.9717 7.9689C10.9717 7.9689 10.9152 7.60518 11.1979 7.16062L11.5696 6.68373C11.61 6.63524 11.6423 6.58674 11.6665 6.53016C11.7473 6.38467 11.9089 6.0856 11.9655 5.84312C11.9655 5.84312 12.1271 4.70344 11.4565 4.70344C11.4565 4.70344 11.4322 5.32582 11.0848 5.85928C11.0848 5.85928 10.5839 6.63524 10.3658 7.09596C10.2931 7.25761 10.2607 7.42735 10.2688 7.60518C10.285 7.83149 10.39 8.07398 10.4627 8.47812C10.4708 8.47812 11.101 10.8141 11.2707 11.8972ZM18.542 6.37659L18.8086 12.7782L19.1722 20.2629L19.6327 24.9024C19.7297 25.9047 20.3033 25.7835 20.3033 25.7835C19.7701 25.5571 19.8185 23.9487 19.8185 23.9487L19.3419 15.0818L18.8571 5.3824C18.8571 5.30157 18.8571 5.22882 18.8733 5.14799C18.9621 4.65494 19.1399 4.46904 19.1399 4.46904C19.6246 3.61226 20.0205 3.57184 20.1498 3.58801C20.2387 3.59609 20.5376 3.64459 20.5861 3.56376C20.6749 3.42635 20.7073 2.90097 20.7073 2.90097C20.5941 2.39175 20.2306 2.27051 20.2306 2.27051C20.2629 2.38367 19.7539 2.95755 19.7539 2.95755L18.7844 4.07298C18.5178 4.42054 18.5339 4.88126 18.5339 4.88126L18.542 6.37659Z" fill="#140A06"/>
<path d="M19.3338 5.34213C19.3015 5.39063 19.2854 5.43912 19.2692 5.4957C19.245 5.62503 19.1965 5.89176 19.2207 6.10192L19.6651 15.7932L20.1741 25.3552C20.1741 25.3552 20.2306 25.7189 20.7154 25.8563C20.7154 25.8563 20.2387 25.6462 20.2872 24.5631L19.8671 15.1709L19.4065 6.15041C19.4065 6.15041 19.3177 5.55228 19.5116 5.0754L19.3338 5.34213ZM25.3852 28.5479C25.3852 28.5479 24.9893 28.3135 24.9893 27.6992L25.4822 20.8369L26.5163 13.1178L27.0899 8.28428C27.0899 8.28428 27.0334 7.86397 27.405 7.52449C27.4535 7.476 27.704 7.16077 27.7444 7.11227C27.8817 6.92636 28.1402 6.82937 28.5281 6.49797L29.0855 6.12616C29.2067 6.06958 29.4006 6.35248 29.4006 6.22316C29.4087 5.97259 29.3117 5.63311 29.134 5.39871L28.8431 4.93799C28.8431 4.93799 27.9463 5.60078 27.6959 5.79477C27.6959 5.79477 26.6941 6.76471 26.4598 7.64574C26.4598 7.64574 26.2982 8.63184 26.2416 9.27847L25.1509 17.531C25.1509 17.531 23.8663 26.1554 24.1572 27.8286C24.1572 27.8286 24.4157 29.1784 25.3852 28.5479Z" fill="#140A06"/>
<path d="M36.1145 11.5089C36.1145 11.5089 35.7186 10.9431 35.1935 10.7815C35.1127 10.7572 35.0238 10.7815 34.9672 10.83C34.8299 10.9431 34.5875 11.1452 34.4179 11.2826C34.3532 11.3311 34.2805 11.3796 34.2078 11.42C33.9816 11.5332 33.3352 11.9292 32.7939 12.8669C32.7616 12.9154 32.7454 12.9719 32.7374 13.0366C32.7212 13.2144 32.6808 13.6105 32.6727 13.8206C32.6727 13.8772 32.6727 13.9257 32.6889 13.9823C32.7131 14.0793 32.7374 14.3137 32.5839 14.5966L28.9967 23.0674L26.8233 28.3212C26.8233 28.3212 26.2335 29.76 25.1024 30.7461C25.1024 30.7461 24.65 31.126 23.4139 30.8916C23.4139 30.8916 18.534 30.1237 15.9325 30.4955C15.9325 30.4955 13.137 30.6895 12.3614 32.6455C12.3614 32.6455 11.8443 33.7044 12.2321 35.2482C12.2321 35.2482 12.4988 36.5738 12.426 37.0588C12.426 37.0588 12.6927 37.6488 13.1613 37.8994L13.339 38.0449C13.339 38.0449 12.1029 37.9883 10.6324 36.8809C10.6324 36.8809 11.1495 37.6731 12.4099 38.0287C12.4099 38.0287 14.3489 38.7804 15.4558 38.9582C15.4558 38.9582 13.2825 37.9883 12.8866 37.2689C12.8866 37.2689 12.8866 37.0911 13.1209 37.1396C13.1209 37.1396 13.8884 37.5033 16.7969 37.5437C16.7969 37.5437 19.6166 37.5922 21.6122 36.986C21.6122 36.986 24.4238 36.3556 24.8762 34.2379C24.8762 34.2379 25.668 31.2795 26.4355 30.0348C26.4355 30.0348 28.3907 25.8155 29.0936 23.9888L31.9133 16.9244C31.9133 16.9244 32.7374 14.7421 32.8101 14.5804C32.8101 14.5804 33.0444 13.6509 33.416 13.1417C33.416 13.1417 33.925 12.4304 34.2643 12.1394C34.3532 12.0667 34.4502 12.0101 34.5633 11.9939C34.6925 11.9697 34.9026 11.9454 35.0804 12.0343C35.0804 12.0343 36.0095 12.4142 36.3569 12.3738C36.365 12.3819 36.5669 12.1879 36.1145 11.5089ZM24.3511 34.3995C24.3511 34.3995 24.3915 35.5877 22.711 36.2828C22.711 36.2828 21.0224 37.4387 16.4657 36.986C16.4657 36.986 13.0966 37.0022 12.6199 35.2482C12.6199 35.2482 12.2924 34.1867 13.0441 32.9511C13.0441 32.9511 14.0228 31.6772 17.4322 31.5317C17.4322 31.5317 21.6572 31.3276 23.6852 32.8068C23.6852 32.8067 24.4978 33.4047 24.3511 34.3995Z" fill="#140A06"/>
<path d="M23.5269 32.6698C22.7917 32.0959 22.0626 31.7385 22.0626 31.7385C19.5661 31.2535 17.1474 31.3897 17.1474 31.3897C13.5198 31.6402 12.8461 33.2195 12.8461 33.2195L12.9086 32.7741C12.6338 32.9104 12.7134 33.8276 12.8066 33.9632C12.9218 33.6426 12.8636 33.5326 13.1563 33.2459C13.6916 32.7218 14.1044 32.6295 14.3517 32.525C14.9074 32.2902 15.4921 32.1397 16.0135 32.0432C16.9446 31.8708 17.6736 31.8708 17.6736 31.8708C19.3002 31.8318 20.2259 31.9172 20.6723 31.9761C20.9007 32.0061 21.6473 32.1895 21.7432 32.2167C24.6593 33.0438 24.1595 34.5551 24.1595 34.5551C24.4601 33.104 23.5269 32.6698 23.5269 32.6698Z" fill="#140A06"/>
<path d="M0.710938 13.2305C0.710938 13.2305 1.06643 13.8528 1.82588 14.1519C1.82588 14.1519 2.12481 14.2732 2.41567 14.3459C2.41567 14.3459 2.74692 14.3863 2.90042 14.6369L4.2335 18.3873L6.13214 23.8756L9.84861 34.6742L10.5273 36.6222L10.6969 37.1556C10.6969 37.1556 10.7858 37.4385 10.9878 37.5275C10.9878 37.5275 12.2885 38.3923 14.3568 38.9258C14.3568 38.9258 15.8596 39.5239 18.445 39.6209C18.445 39.6209 21.3616 39.7098 23.3087 38.8935C23.3087 38.8935 24.7387 38.3519 25.377 37.9963C25.377 37.9963 24.868 38.4812 22.6139 39.2491C22.6139 39.2491 20.1093 40.0089 17.1765 39.726C17.1765 39.726 13.8559 39.338 10.8989 37.7295C10.8989 37.7295 10.6646 37.6891 10.4303 36.9132L9.21034 33.3001L8.055 29.8488L6.14021 24.2959L4.45164 19.3411L2.9085 14.8955C2.9085 14.8955 2.79539 14.5237 2.46414 14.4995C2.43182 14.4995 2.40759 14.4914 2.37527 14.4914C2.13289 14.4267 0.985633 14.1034 0.710938 13.2305Z" fill="#7B4F36"/>
<path d="M15.3829 38.7884C15.3829 38.7884 20.1739 39.8877 24.6014 37.8912L25.3689 37.5518C25.3689 37.5518 23.9066 38.8773 19.5034 39.2653C19.4953 39.2653 16.9826 39.3785 15.3829 38.7884Z" fill="#684C34"/>
<path d="M12.1917 34.0276C12.1917 34.0276 12.3613 32.5485 13.0077 31.9503C13.0077 31.9503 13.5974 31.0855 16.506 30.746C16.506 30.746 19.7943 30.3338 22.8321 31.4411C22.8321 31.4411 23.7935 31.8048 24.1975 32.6374C24.1975 32.6374 23.5673 31.2148 19.5761 30.94C19.5761 30.94 17.3624 30.7702 15.3426 31.1825C15.0598 31.239 14.7851 31.3037 14.5023 31.3603C14.051 31.5221 12.5552 31.8129 12.1917 34.0276Z" fill="#79593A"/>
<defs>
<linearGradient id="paint0_linear_1995_10756" x1="2.87285" y1="14.8331" x2="37.254" y2="26.74" gradientUnits="userSpaceOnUse">
<stop stop-color="#F9F4EB"/>
<stop offset="0.089" stop-color="#F8F2E7"/>
<stop offset="0.17" stop-color="#F6ECDD"/>
<stop offset="0.248" stop-color="#F3E3CD"/>
<stop offset="0.324" stop-color="#EFD6B5"/>
<stop offset="0.338" stop-color="#EDD3B0"/>
<stop offset="0.42" stop-color="#ECCFA9"/>
<stop offset="0.48" stop-color="#EBCAA0"/>
<stop offset="0.703" stop-color="#E1BC8B"/>
<stop offset="0.81" stop-color="#DCB480"/>
<stop offset="0.844" stop-color="#CA9E70"/>
<stop offset="0.893" stop-color="#B98960"/>
<stop offset="0.944" stop-color="#AF7D57"/>
<stop offset="1" stop-color="#AC7954"/>
</linearGradient>
<linearGradient id="paint1_linear_1995_10756" x1="-0.649073" y1="16.7098" x2="34.7831" y2="23.0318" gradientUnits="userSpaceOnUse">
<stop stop-color="#E8C798"/>
<stop offset="0.139" stop-color="#E8C89B"/>
<stop offset="0.241" stop-color="#EBCDA4"/>
<stop offset="0.316" stop-color="#EDD3B0"/>
<stop offset="0.399" stop-color="#ECD0A9"/>
<stop offset="0.482" stop-color="#E9CA9D"/>
<stop offset="0.757" stop-color="#E7C89A"/>
<stop offset="0.769" stop-color="#C8A77F"/>
<stop offset="0.79" stop-color="#A07E5E"/>
<stop offset="0.811" stop-color="#816046"/>
<stop offset="0.832" stop-color="#6A4B35"/>
<stop offset="0.854" stop-color="#5C3D2B"/>
<stop offset="0.877" stop-color="#533624"/>
<stop offset="0.901" stop-color="#503322"/>
</linearGradient>
<linearGradient id="paint2_linear_1995_10756" x1="8.99694" y1="16.7257" x2="33.0769" y2="25.1924" gradientUnits="userSpaceOnUse">
<stop offset="0.12" stop-color="#F3DFBD"/>
<stop offset="0.257" stop-color="#F0DBB9"/>
<stop offset="0.382" stop-color="#E7CFAC"/>
<stop offset="0.503" stop-color="#D9BA96"/>
<stop offset="0.62" stop-color="#C69F7A"/>
<stop offset="0.691" stop-color="#B98B67"/>
</linearGradient>
<linearGradient id="paint3_linear_1995_10756" x1="-0.587347" y1="16.5958" x2="34.8448" y2="22.9177" gradientUnits="userSpaceOnUse">
<stop stop-color="#E8C798"/>
<stop offset="0.139" stop-color="#E8C89B"/>
<stop offset="0.241" stop-color="#EBCDA4"/>
<stop offset="0.316" stop-color="#EDD3B0"/>
<stop offset="0.399" stop-color="#ECD0A9"/>
<stop offset="0.482" stop-color="#E9CA9D"/>
<stop offset="0.714" stop-color="#E7C89A"/>
<stop offset="0.749" stop-color="#EFD8B7"/>
<stop offset="0.784" stop-color="#F5E5CF"/>
<stop offset="0.821" stop-color="#FAEFE0"/>
<stop offset="0.86" stop-color="#FDF5EA"/>
<stop offset="0.901" stop-color="#FEF7EE"/>
</linearGradient>
<linearGradient id="paint4_linear_1995_10756" x1="18.5805" y1="9.58376" x2="16.9634" y2="43.4735" gradientUnits="userSpaceOnUse">
<stop offset="0.581" stop-color="#FCFBE9" stop-opacity="0"/>
<stop offset="0.628" stop-color="#EEE6D0" stop-opacity="0.181"/>
<stop offset="0.725" stop-color="#CCB592" stop-opacity="0.554"/>
<stop offset="0.842" stop-color="#A37B4C"/>
<stop offset="0.843" stop-color="#9E764B"/>
<stop offset="0.858" stop-color="#6E543E"/>
<stop offset="0.873" stop-color="#4A3A31"/>
<stop offset="0.889" stop-color="#2F2624"/>
<stop offset="0.904" stop-color="#1C1718"/>
<stop offset="0.92" stop-color="#0F0C0D"/>
<stop offset="0.937" stop-color="#070506"/>
<stop offset="0.955" stop-color="#050304"/>
</linearGradient>
<linearGradient id="paint5_linear_1995_10756" x1="-0.649073" y1="16.7098" x2="34.7831" y2="23.0318" gradientUnits="userSpaceOnUse">
<stop stop-color="#E8C798"/>
<stop offset="0.102" stop-color="#E8C89B"/>
<stop offset="0.178" stop-color="#EBCDA4"/>
<stop offset="0.234" stop-color="#EDD3B0"/>
<stop offset="0.357" stop-color="#ECD0A9"/>
<stop offset="0.482" stop-color="#E9CA9D"/>
<stop offset="0.796" stop-color="#E7C89A"/>
<stop offset="0.888" stop-color="#967456"/>
<stop offset="0.964" stop-color="#62432F"/>
<stop offset="1" stop-color="#503322"/>
</linearGradient>
<linearGradient id="paint6_linear_1995_10756" x1="31.7207" y1="14.7024" x2="2.02599" y2="26.7935" gradientUnits="userSpaceOnUse">
<stop offset="0.803" stop-color="#FCFBE9" stop-opacity="0"/>
<stop offset="0.812" stop-color="#EEE6D0" stop-opacity="0.181"/>
<stop offset="0.831" stop-color="#CCB592" stop-opacity="0.554"/>
<stop offset="0.854" stop-color="#A37B4C"/>
<stop offset="0.855" stop-color="#9E764B"/>
<stop offset="0.868" stop-color="#6E543E"/>
<stop offset="0.882" stop-color="#4A3A31"/>
<stop offset="0.896" stop-color="#2F2624"/>
<stop offset="0.91" stop-color="#1C1718"/>
<stop offset="0.924" stop-color="#0F0C0D"/>
<stop offset="0.939" stop-color="#070506"/>
<stop offset="0.955" stop-color="#050304"/>
</linearGradient>
<linearGradient id="paint7_linear_1995_10756" x1="-0.649073" y1="16.7098" x2="34.7831" y2="23.0318" gradientUnits="userSpaceOnUse">
<stop stop-color="#E8C798"/>
<stop offset="0.102" stop-color="#E8C89B"/>
<stop offset="0.178" stop-color="#EBCDA4"/>
<stop offset="0.234" stop-color="#EDD3B0"/>
<stop offset="0.357" stop-color="#ECD0A9"/>
<stop offset="0.482" stop-color="#E9CA9D"/>
<stop offset="0.796" stop-color="#E7C89A"/>
<stop offset="0.888" stop-color="#967456"/>
<stop offset="0.964" stop-color="#62432F"/>
<stop offset="1" stop-color="#503322"/>
</linearGradient>
<radialGradient id="paint8_radial_1995_10756" cx="0" cy="0" r="1" gradientUnits="userSpaceOnUse" gradientTransform="translate(2.48861 11.8483) scale(2.65728 2.65844)">
<stop stop-color="#FFFEFA"/>
<stop offset="0.248" stop-color="#FEFDF8"/>
<stop offset="0.433" stop-color="#FEFBF1"/>
<stop offset="0.452" stop-color="#FDFAF0"/>
<stop offset="0.513" stop-color="#F6EFE2" stop-opacity="0.866"/>
<stop offset="0.62" stop-color="#E4D2BE" stop-opacity="0.627"/>
<stop offset="0.76" stop-color="#C8A789" stop-opacity="0.314"/>
<stop offset="0.901" stop-color="#AC7954" stop-opacity="0"/>
</radialGradient>
<radialGradient id="paint9_radial_1995_10756" cx="0" cy="0" r="1" gradientUnits="userSpaceOnUse" gradientTransform="translate(9.6221 5.54779) rotate(134.987) scale(3.06315 3.35565)">
<stop stop-color="#FFFEFA"/>
<stop offset="0.192" stop-color="#FEFDF7"/>
<stop offset="0.353" stop-color="#FDFAF0"/>
<stop offset="0.393" stop-color="#FCF6E9"/>
<stop offset="0.451" stop-color="#F7EAD6"/>
<stop offset="0.52" stop-color="#EFD7B8"/>
<stop offset="0.544" stop-color="#ECD0AC"/>
<stop offset="0.797" stop-color="#714D38"/>
</radialGradient>
<radialGradient id="paint10_radial_1995_10756" cx="0" cy="0" r="1" gradientUnits="userSpaceOnUse" gradientTransform="translate(18.3641 2.85917) rotate(180) scale(3.32777 3.61333)">
<stop stop-color="#FFFEFA"/>
<stop offset="0.132" stop-color="#FEFDF7"/>
<stop offset="0.242" stop-color="#FDFAF0"/>
<stop offset="0.303" stop-color="#FCF6E9"/>
<stop offset="0.392" stop-color="#F7EAD6"/>
<stop offset="0.497" stop-color="#EFD7B8"/>
<stop offset="0.532" stop-color="#ECD0AC"/>
<stop offset="0.677" stop-color="#835D48"/>
<stop offset="0.95" stop-color="#8C5C3D"/>
</radialGradient>
<radialGradient id="paint11_radial_1995_10756" cx="0" cy="0" r="1" gradientUnits="userSpaceOnUse" gradientTransform="translate(27.0615 5.68908) rotate(-170.168) scale(4.06738 4.22504)">
<stop offset="0.031" stop-color="#FFFEFA"/>
<stop offset="0.095" stop-color="#FCF9F3"/>
<stop offset="0.188" stop-color="#F4EADF"/>
<stop offset="0.3" stop-color="#E7D4BF"/>
<stop offset="0.425" stop-color="#D6B594"/>
<stop offset="0.44" stop-color="#D4B18E"/>
<stop offset="0.57" stop-color="#D7B694"/>
<stop offset="0.747" stop-color="#6D422F"/>
</radialGradient>
<radialGradient id="paint12_radial_1995_10756" cx="0" cy="0" r="1" gradientUnits="userSpaceOnUse" gradientTransform="translate(34.1694 12.1015) rotate(-170.168) scale(3.99734 3.999)">
<stop offset="0.044" stop-color="#FDF6E0"/>
<stop offset="0.112" stop-color="#FBF1D9"/>
<stop offset="0.211" stop-color="#F4E3C5"/>
<stop offset="0.329" stop-color="#EACEA5"/>
<stop offset="0.389" stop-color="#E4C092"/>
<stop offset="0.632" stop-color="#8C5C3D"/>
<stop offset="0.67" stop-color="#372623"/>
</radialGradient>
</defs>
</svg>
