<svg width="50" height="58" viewBox="0 0 50 58" fill="none" xmlns="http://www.w3.org/2000/svg">
<path d="M49.1336 18.3097C49.1336 18.2711 49.1571 18.2517 49.204 18.2517V18.1359V17.7303L49.0633 17.5564V5.15684L48.8522 5.04096L26.2665 2.2018V0.985016C26.2665 0.714619 26.1492 0.482849 25.9147 0.289711C25.6802 0.0965691 25.3987 0 25.0704 0C24.742 0 24.4723 0.0965691 24.2612 0.289711C24.0501 0.482849 23.9446 0.714619 23.9446 0.985016V2.14386L1.14782 4.80919L0.936741 4.92508L0.866381 5.0989C0.772567 13.0563 0.772567 17.1702 0.866381 17.4406C0.913288 17.5564 1.0071 17.6144 1.14782 17.6144L1.28854 18.0779L1.42926 18.1938L23.9446 34.5914V48.5554H16.8382L7.7617 58H42.379L34.9912 48.5554H26.2665V34.5914L48.8522 18.7153C48.946 18.638 49.0164 18.5415 49.0633 18.4256L49.1336 18.3097ZM2.13287 16.6873C2.13287 16.6873 2.10941 16.6873 2.06251 16.6873L1.71071 16.8032L12.6869 10.1978L22.6077 14.3117L2.13287 16.6873ZM48.3597 16.7453L37.876 10.0819L48.3597 5.7942V16.7453ZM37.2427 9.67632L26.3369 2.83916L47.5153 5.44655L37.2427 9.67632ZM23.9446 14.1379L23.8742 14.1958L13.3202 9.79221L23.9446 3.36064V14.1379ZM26.2665 14.1958V3.53447L36.4688 9.96603L26.2665 14.1958ZM12.6166 9.50249L2.41431 5.27273L23.6632 2.78122L12.6166 9.50249ZM11.913 9.90809L1.56999 16.1658C1.52308 14.1572 1.52308 10.642 1.56999 5.62038L11.913 9.90809ZM37.102 10.3716L47.445 16.9191L27.533 14.3696L37.102 10.3716ZM5.01765 18.3097L23.9446 16.1079V32.042L5.01765 18.3097ZM26.2665 16.1079L45.4045 18.5994L26.2665 32.0999V16.1079Z" fill="black"/>
</svg>
