<svg width="96" height="59" viewBox="0 0 96 59" fill="none" xmlns="http://www.w3.org/2000/svg">
<path d="M93.5484 33.1249C91.9022 30.4529 89.644 28.3506 86.7736 26.8182C83.9033 25.2857 80.8114 24.5195 77.4979 24.5195C74.1843 24.5195 71.0924 25.3054 68.2221 26.8771C67.6734 27.1522 67.1246 27.4665 66.5759 27.8202L66.3226 26.995L61.5739 3.41858C63.0513 2.86847 64.6131 2.45588 66.2593 2.18082C68.0744 1.90576 69.1085 1.9647 69.3618 2.35764C69.5306 2.55411 69.7522 2.68182 70.0266 2.74076C70.301 2.7997 70.5542 2.76041 70.7864 2.62288C71.0185 2.48535 71.1663 2.28888 71.2296 2.03347C71.2929 1.77806 71.2613 1.53247 71.1346 1.2967C70.206 -0.0392939 68.2432 -0.353646 65.2463 0.353646C64.4443 0.550117 63.3257 0.864469 61.8905 1.2967C60.7508 1.68964 60.086 1.92541 59.8961 2.004C59.7061 2.08258 59.5584 2.22011 59.4529 2.41658C59.3473 2.61305 59.3157 2.82917 59.3579 3.06494L62.4604 18.3307C61.1518 18.9201 59.9488 20.0596 58.8514 21.7493C57.9649 23.1638 57.0996 25.05 56.2554 27.4076C55.7489 28.7829 55.0524 30.9441 54.166 33.8911C53.4062 36.3666 52.8364 38.1349 52.4565 39.1958C51.7811 40.9247 51.1901 42.0446 50.6836 42.5554C49.6284 43.6164 48.151 44.1861 46.2515 44.2647C45.1118 44.304 43.9088 44.1665 42.6425 43.8521L34.2848 17.9181C35.8888 17.6823 37.6617 17.2501 39.6033 16.6214C40.5742 16.2677 41.4395 15.9337 42.1993 15.6194C42.4526 15.5408 42.632 15.3934 42.7375 15.1773C42.843 14.9612 42.8641 14.7353 42.8008 14.4995C42.7375 14.2637 42.6003 14.0869 42.3892 13.969C42.1782 13.8511 41.946 13.7922 41.6928 13.7922C40.6797 13.9101 39.7089 13.969 38.7802 13.969C35.6145 13.969 33.1029 13.4386 31.2457 12.3776C30.317 11.8275 29.6839 11.2577 29.3462 10.6683C29.1773 10.2754 28.8608 10.0986 28.3964 10.1379C28.1854 10.1379 27.9954 10.1968 27.8266 10.3147C27.6578 10.4326 27.5311 10.5897 27.4467 10.7862C26.5181 13.2617 26.5392 15.1479 27.51 16.4446C28.3542 17.5448 29.8316 18.0949 31.9421 18.0949H32.1954L33.4617 22.044L29.3462 26.8182C26.8135 25.0892 23.9854 24.048 20.8619 23.6943C20.0599 23.6157 19.279 23.5764 18.5192 23.5764C15.48 23.5764 12.6203 24.2346 9.93988 25.5509C7.25951 26.8673 5.05401 28.6748 3.32338 30.9735C1.59275 33.2722 0.537483 35.8362 0.157588 38.6653C-0.264518 41.7696 0.199798 44.7363 1.55054 47.5654C2.81685 50.3553 4.73743 52.654 7.31228 54.4615C9.97154 56.3477 12.9474 57.4872 16.2398 57.8801C17.0418 57.9587 17.8227 57.998 18.5825 57.998C21.4106 57.998 24.0804 57.4282 26.5919 56.2887C29.1035 55.1492 31.2351 53.5676 32.9868 51.544C34.7386 49.5203 35.931 47.2511 36.5642 44.7363L41.5661 45.5614C42.748 45.9151 43.9721 46.1312 45.2385 46.2098H45.9349C48.552 46.2098 50.6414 45.4436 52.2032 43.9111C52.8786 43.2038 53.5539 41.966 54.2293 40.1978C54.6514 39.0976 55.2846 37.1722 56.1288 34.4216V34.3626C57.3107 30.5511 58.2604 27.7809 58.978 26.0519C60.2443 23.0656 61.5317 21.1598 62.8403 20.3347L64.3598 27.6434C64.5287 28.1542 64.6975 28.665 64.8664 29.1758C62.2915 31.4156 60.5398 34.1269 59.6111 37.3097C58.978 39.5495 58.8303 41.799 59.1679 44.0584C59.5056 46.3178 60.2865 48.4299 61.5106 50.3946C63.1568 53.0666 65.4151 55.1688 68.2854 56.7013C71.1557 58.2338 74.2371 59 77.5295 59C80.8219 59 83.9139 58.2239 86.8053 56.6718C89.6967 55.1197 91.9655 52.988 93.6117 50.2767C95.2157 47.644 96.0177 44.8149 96.0177 41.7892C96.06 38.685 95.2369 35.7969 93.5484 33.1249ZM18.5825 56.1119C17.9071 56.1119 17.2106 56.0726 16.4931 55.994C13.5383 55.6404 10.9107 54.6384 8.61025 52.988C6.30978 51.3377 4.57914 49.2649 3.41835 46.7697C2.25756 44.2746 1.86712 41.6517 2.24701 38.9011C2.58469 36.3863 3.52388 34.1072 5.06456 32.0639C6.60525 30.0206 8.55749 28.4096 10.9213 27.2308C13.2851 26.0519 15.8177 25.4625 18.5192 25.4625C19.1945 25.4625 19.8699 25.5018 20.5453 25.5804C23.289 25.8948 25.8005 26.7985 28.0799 28.2917L17.7594 40.1978C17.5061 40.4729 17.4428 40.7774 17.5694 41.1114C17.6961 41.4454 17.9704 41.6517 18.3925 41.7303L34.5381 44.3826C33.9471 46.6224 32.8708 48.6362 31.309 50.4241C29.7472 52.212 27.8583 53.6069 25.6422 54.6089C23.4262 55.6109 21.0729 56.1119 18.5825 56.1119ZM34.918 42.4965L20.482 40.1389L29.6628 29.5295C31.5622 31.1405 32.9868 33.0856 33.9366 35.3646C34.8863 37.6437 35.2135 40.021 34.918 42.4965ZM36.9441 42.7912C37.2818 40.0013 36.9019 37.2704 35.8044 34.5984C34.7491 32.0443 33.1451 29.8438 30.9924 27.997L34.2215 24.2837L40.3631 43.3806L36.9441 42.7912ZM85.7606 54.992C83.228 56.3673 80.4948 57.0549 77.5612 57.0549C74.6276 57.0549 71.8839 56.3771 69.3301 55.0215C66.7764 53.6658 64.7608 51.8092 63.2835 49.4515C62.186 47.6833 61.4895 45.7972 61.194 43.7932C60.8986 41.7892 61.0463 39.8049 61.6373 37.8402C62.397 35.2075 63.7689 32.9481 65.7528 31.0619C67.3146 33.9697 69.615 36.7399 72.6542 39.3726C74.216 40.7086 75.6512 41.7696 76.9597 42.5554C77.1285 42.6733 77.3185 42.7323 77.5295 42.7323C77.9094 42.7323 78.1838 42.6046 78.3526 42.3492C78.5215 42.0937 78.5742 41.8285 78.5109 41.5534C78.4476 41.2784 78.3104 41.0819 78.0994 40.964C76.8331 40.1782 75.4401 39.1369 73.9205 37.8402C70.9658 35.2468 68.7919 32.5355 67.399 29.7063C67.9899 29.2741 68.6231 28.8811 69.2985 28.5275C71.8311 27.1522 74.5642 26.4645 77.4979 26.4645C80.4315 26.4645 83.1752 27.1424 85.7289 28.498C88.2827 29.8536 90.2982 31.7201 91.7756 34.0974C93.253 36.4747 93.9811 39.019 93.96 41.7303C93.9389 44.4416 93.2107 46.9858 91.7756 49.3631C90.3404 51.7404 88.3354 53.6167 85.7606 54.992ZM64.2965 9.66633L66.006 18.8611C66.0483 19.0576 66.1643 19.2246 66.3543 19.3621C66.5442 19.4997 66.7447 19.5881 66.9558 19.6274L76.8964 20.0989C77.1074 20.0989 77.3079 20.0301 77.4979 19.8926C77.6878 19.7551 77.8039 19.5684 77.8461 19.3327L79.9355 11.1988C80.231 11.2774 80.5054 11.3854 80.7586 11.523C81.0119 11.6605 81.2652 11.6998 81.5184 11.6409C81.7717 11.5819 81.9722 11.4444 82.1199 11.2283C82.2677 11.0122 82.2993 10.7764 82.2149 10.521C82.1305 10.2656 81.9827 10.0789 81.7717 9.96104C79.1968 8.58575 75.6934 7.9374 71.2613 8.01598C69.0241 8.05528 66.9769 8.25175 65.1196 8.60539C64.8664 8.64469 64.6553 8.76257 64.4865 8.95904C64.3176 9.15551 64.2543 9.39128 64.2965 9.66633Z" fill="black"/>
</svg>
