<svg width="116" height="53" viewBox="0 0 116 53" fill="none" xmlns="http://www.w3.org/2000/svg">
<path d="M112.344 2.85915C110.117 2.01199 107.302 1.32368 103.9 0.794212C99.9708 0.158848 95.9813 -0.105888 91.931 3.8147e-06C87.1922 0.141197 82.7166 0.794212 78.5043 1.95905C73.644 3.30037 69.3507 5.27706 65.6245 7.88911C63.2753 9.54812 61.1793 11.4454 59.3364 13.5809C57.4936 15.7165 55.9646 17.9844 54.7495 20.3846C53.8179 22.4672 53.1901 24.7439 52.8661 27.2148C52.5016 29.7915 52.5421 32.1742 52.9876 34.3626C53.4737 36.7629 54.3647 38.6514 55.6608 40.028L56.1468 40.5574L55.7216 41.1399C54.6685 42.5871 53.6154 44.2108 52.5624 46.011L51.5295 47.6523L50.679 45.958C49.5044 43.8049 48.026 41.687 46.2439 39.6044C43.5302 36.3923 40.3913 33.7449 36.827 31.6623C32.2097 28.9444 27.0861 27.2677 21.4563 26.6324H21.274C20.869 26.6324 20.5044 26.7559 20.1804 27.003C19.8564 27.2501 19.664 27.5678 19.6033 27.956C19.5425 28.3443 19.6539 28.6885 19.9374 28.9885C20.2209 29.2885 20.6057 29.4739 21.0917 29.5445C25.9521 30.0739 30.3871 31.4682 34.3969 33.7273C37.5966 35.5275 40.452 37.8395 42.9632 40.6633C44.7858 42.7106 46.3452 44.8991 47.6413 47.2288C48.2893 48.4642 48.7551 49.4702 49.0386 50.2468C49.1196 50.4232 49.2209 50.5821 49.3424 50.7233L49.7069 51.1469L48.8563 53L52.4408 52.9471C53.6964 50.2644 55.4178 47.2817 57.6049 43.999C61.4932 38.2454 65.8877 33.1096 70.7886 28.5914C77.431 22.4496 84.681 17.8432 92.5385 14.7722C92.9436 14.631 93.2271 14.3751 93.3891 14.0045C93.5511 13.6339 93.541 13.2632 93.3587 12.8926C93.1765 12.522 92.8727 12.2749 92.4474 12.1514C92.0221 12.0278 91.5867 12.0366 91.1412 12.1778C78.7879 17.0137 68.0546 25.2028 58.9415 36.7453L57.848 38.1219L57.1189 36.5864C56.2684 34.8215 55.8836 32.5801 55.9646 29.8621C56.0051 26.8265 56.6329 24.0203 57.848 21.4436C60.0756 16.996 63.3665 13.2368 67.7205 10.1658C72.0745 7.09491 77.3095 4.99467 83.4254 3.86514C88.2858 2.98269 93.4296 2.75325 98.857 3.17683C103.029 3.49451 106.593 4.07693 109.55 4.92408L111.798 5.61239L109.732 6.61839C109.165 6.86547 108.578 7.18316 107.97 7.57143C105.945 8.80687 104.183 10.3247 102.684 12.1249C101.469 13.5721 100.416 15.2311 99.5253 17.1019C98.9987 18.1961 98.3709 19.714 97.6419 21.6553C97.2774 22.6084 96.9736 23.3497 96.7306 23.8791C95.232 27.1971 93.0853 29.8798 90.2906 31.9271C86.2404 34.9627 80.6105 36.9747 73.401 37.963C72.9555 38.0336 72.591 38.2278 72.3074 38.5455C72.0239 38.8631 71.9227 39.2161 72.0037 39.6044C72.0847 39.9927 72.3074 40.3015 72.672 40.531C73.0365 40.7604 73.4415 40.8575 73.887 40.8222C80.57 39.8691 86.048 38.0866 90.321 35.4745C94.5941 32.8625 97.7431 29.368 99.7683 24.991C99.9708 24.5321 100.234 23.8615 100.558 22.979L100.68 22.5554C101.328 20.8258 101.874 19.4669 102.32 18.4785C103.13 16.7842 104.062 15.2841 105.115 13.978C106.451 12.3896 108.011 11.0306 109.793 9.9011C110.967 9.19514 112.203 8.61272 113.499 8.15385C114.43 7.83617 115.058 7.51849 115.382 7.2008C115.787 6.84782 115.969 6.38895 115.929 5.82418C115.888 5.15352 115.504 4.5711 114.775 4.07693C114.248 3.68865 113.438 3.28272 112.344 2.85915ZM33.7286 40.3986C30.3264 40.4339 26.9748 39.9927 23.6738 39.0749C20.3728 38.1572 17.3655 36.7982 14.6518 34.998C11.9786 33.1978 9.71046 31.1064 7.84734 28.7238C5.98421 26.3412 4.56662 23.7556 3.59455 20.967L3.41229 20.3317L4.01983 19.961C6.36899 18.5491 8.88016 17.4637 11.5533 16.7048C14.2265 15.9459 17.001 15.5664 19.8766 15.5664L20.1804 15.6194C23.9877 15.69 27.6835 16.546 31.268 18.1873C34.8525 19.8287 38.0421 22.0789 40.8368 24.9381C43.6315 27.7972 45.7984 31.0623 47.3375 34.7333C47.4995 35.0862 47.783 35.351 48.1881 35.5275C48.5931 35.704 49.0082 35.7216 49.4335 35.5804C49.8588 35.4392 50.1727 35.1921 50.3752 34.8392C50.5777 34.4862 50.598 34.1156 50.436 33.7273C48.6943 29.6327 46.2946 26.0235 43.2366 22.8996C40.1786 19.7757 36.6752 17.3313 32.7261 15.5664C28.7771 13.8015 24.656 12.8661 20.3627 12.7602H20.0589C16.5352 12.7602 13.1026 13.2632 9.76109 14.2692C6.41962 15.2752 3.37178 16.7313 0.617599 18.6374C0.33408 18.8139 0.141692 19.0345 0.0404354 19.2992C-0.0608215 19.5639 -0.0709471 19.8375 0.0100583 20.1199C0.941621 23.5085 2.50098 26.6765 4.68812 29.6239C6.87527 32.5713 9.54845 35.1215 12.7077 37.2747C15.7049 39.2161 19.016 40.6986 22.641 41.7223C26.266 42.7459 29.9618 43.2577 33.7286 43.2577C34.1741 43.2577 34.5589 43.1166 34.8829 42.8342C35.2069 42.5518 35.3689 42.2165 35.3689 41.8282C35.3689 41.4399 35.2069 41.1046 34.8829 40.8222C34.5589 40.5398 34.1741 40.3986 33.7286 40.3986Z" fill="black"/>
</svg>
