<svg width="96" height="66" viewBox="0 0 96 66" fill="none" xmlns="http://www.w3.org/2000/svg">
<path d="M73.5576 65.011H73.3321C72.2046 65.011 71.1146 64.8791 70.0623 64.6154C69.0099 64.3516 68.1079 63.978 67.3562 63.4945C67.2059 63.4066 67.0931 63.3407 67.018 63.2967H66.7925C66.7173 63.2967 66.6045 63.2967 66.4542 63.2967L66.0032 63.4945C65.3267 63.978 64.4622 64.3516 63.4099 64.6154C62.3575 64.8791 61.23 65.011 60.0273 65.011C58.8246 65.011 57.6971 64.8791 56.6447 64.6154C55.5924 64.3516 54.7279 63.978 54.0514 63.4945C53.9011 63.3626 53.6756 63.2967 53.3749 63.2967C53.0742 63.2967 52.8487 63.3626 52.6984 63.4945C52.0219 63.978 51.1574 64.3516 50.1051 64.6154C49.0527 64.8791 47.9252 65.011 46.7225 65.011C45.5198 65.011 44.3923 64.8791 43.3399 64.6154C42.2876 64.3516 41.4231 63.978 40.7466 63.4945C40.5963 63.3626 40.3708 63.2967 40.0701 63.2967C39.7694 63.2967 39.5439 63.3626 39.3936 63.4945C38.7171 63.978 37.8526 64.3516 36.8003 64.6154C35.7479 64.8791 34.6204 65.011 33.4177 65.011H33.1922C32.9667 65.011 32.7788 65.0659 32.6284 65.1758C32.4781 65.2857 32.4029 65.4066 32.4029 65.5385C32.4029 65.6703 32.4781 65.7802 32.6284 65.8681C32.7788 65.956 32.9667 66 33.1922 66H33.4177C36.0486 66 38.2285 65.5165 39.9574 64.5495L40.0701 64.4835L40.1829 64.5495C41.9117 65.5165 44.0916 66 46.7225 66C49.3534 66 51.5333 65.5165 53.2622 64.5495L53.3749 64.4835L53.4877 64.5495C55.2165 65.5165 57.3964 66 60.0273 66C62.6582 66 64.8381 65.5165 66.567 64.5495L66.6797 64.4835L66.7925 64.5495C68.5213 65.5165 70.7012 66 73.3321 66H73.5576C73.7831 66 73.971 65.956 74.1214 65.8681C74.2717 65.7802 74.3469 65.6703 74.3469 65.5385C74.3469 65.4066 74.2717 65.2857 74.1214 65.1758C73.971 65.0659 73.7831 65.011 73.5576 65.011ZM95.8826 58.6154C95.7323 58.5275 95.5068 58.4835 95.2061 58.4835H95.0934C93.8907 58.4835 92.7819 58.3516 91.7672 58.0879C90.7524 57.8242 89.8692 57.4505 89.1175 56.967C88.9671 56.8791 88.8168 56.8132 88.6665 56.7692H88.5537C88.4785 56.7253 88.3658 56.7253 88.2154 56.7692L87.7644 56.9011C87.0879 57.3846 86.2235 57.7692 85.1711 58.0549C84.1188 58.3407 82.9912 58.4835 81.7886 58.4835C80.5859 58.4835 79.4395 58.3407 78.3496 58.0549C77.2597 57.7692 76.414 57.3846 75.8127 56.9011C75.6623 56.8132 75.4368 56.7692 75.1362 56.7692C74.8355 56.7692 74.61 56.8132 74.4596 56.9011C73.7831 57.3846 72.9187 57.7692 71.8663 58.0549C70.814 58.3407 69.6864 58.4835 68.4838 58.4835C67.8824 58.4835 67.3186 58.4396 66.7925 58.3516C65.1388 58.1758 63.7857 57.7363 62.7334 57.033L62.1696 56.7692H61.6059L61.1548 56.9011C60.779 57.1648 60.4032 57.3846 60.0273 57.5604L59.6891 57.6923C59.238 57.8681 58.8622 58 58.5615 58.0879L56.983 58.3516L56.532 58.4176C55.9306 58.4615 55.4796 58.4835 55.179 58.4835C53.9763 58.4835 52.8299 58.3407 51.74 58.0549C50.6501 57.7692 49.7668 57.3846 49.0903 56.9011C48.94 56.8132 48.7333 56.7692 48.4702 56.7692C48.2071 56.7692 48.0004 56.8132 47.85 56.9011C47.1735 57.3846 46.3091 57.7692 45.2567 58.0549C44.2044 58.3407 43.0768 58.4835 41.8741 58.4835C41.2728 58.4835 40.709 58.4396 40.1829 58.3516C38.5292 58.1758 37.1385 57.7363 36.011 57.033L35.56 56.7692H34.9962L34.5452 56.9011C34.1694 57.1648 33.7935 57.3846 33.4177 57.5604L32.8539 57.7582C32.4781 57.8901 32.1774 58 31.9519 58.0879L30.2606 58.3516L29.6969 58.4176C29.1707 58.4615 28.7949 58.4835 28.5693 58.4835C27.3667 58.4835 26.2203 58.3407 25.1304 58.0549C24.0405 57.7692 23.1572 57.3846 22.4807 56.9011C22.3304 56.8132 22.1237 56.7692 21.8606 56.7692C21.5975 56.7692 21.3908 56.8132 21.2404 56.9011C20.5639 57.3846 19.6995 57.7692 18.6471 58.0549C17.5948 58.3407 16.4672 58.4835 15.2645 58.4835C14.0619 58.4835 12.9155 58.3407 11.8256 58.0549C10.7357 57.7692 9.85242 57.3846 9.17591 56.9011C9.02557 56.7692 8.81886 56.7033 8.55577 56.7033C8.29268 56.7033 8.08597 56.7692 7.93563 56.9011C7.25912 57.3846 6.39468 57.7692 5.34232 58.0549C4.28997 58.3407 3.16244 58.4835 1.95975 58.4835H1.73424C1.50874 58.4835 1.32082 58.5275 1.17048 58.6154C1.02014 58.7033 0.944974 58.8132 0.944974 58.9451C0.944974 59.0769 1.02014 59.1868 1.17048 59.2747C1.32082 59.3626 1.50874 59.4066 1.73424 59.4066H1.95975C4.51547 59.4066 6.69535 58.9231 8.49939 57.956H8.61215H8.7249C10.4538 58.9231 12.6149 59.4066 15.2082 59.4066C17.8015 59.4066 20.0002 58.9231 21.8042 57.956H21.9169H22.0297C23.6834 58.8791 25.7505 59.3626 28.2311 59.4066H28.5693C31.2002 59.4066 33.3801 58.9231 35.109 57.956H35.2217H35.3345C37.0634 58.9231 39.2433 59.4066 41.8741 59.4066H42.0997C44.6554 59.3626 46.7601 58.8791 48.4138 57.956H48.5266H48.6393C50.293 58.8791 52.3601 59.3626 54.8407 59.4066H55.179C57.8098 59.4066 59.9897 58.9231 61.7186 57.956H61.8314H61.9441C63.673 58.9231 65.8529 59.4066 68.4838 59.4066H68.7093C71.265 59.3626 73.3697 58.8791 75.0234 57.956H75.1362H75.2489C76.9778 58.9231 79.1577 59.4066 81.7886 59.4066C84.4194 59.4066 86.5993 58.9231 88.3282 57.956L88.441 57.8901L88.5537 57.956C90.2826 58.9231 92.4625 59.4066 95.0934 59.4066H95.2061C95.5068 59.4066 95.7323 59.3626 95.8826 59.2747C96.033 59.1868 96.1081 59.0769 96.1081 58.9451C96.1081 58.8132 96.033 58.7033 95.8826 58.6154ZM17.6324 39.8901L29.0204 44.2418C30.6741 44.8132 32.215 45.0989 33.6432 45.0989L66.567 45.2967C67.3186 47.1429 67.92 48.8571 68.371 50.4396H15.1518C14.8511 50.4396 14.5692 50.5055 14.3062 50.6374C14.0431 50.7692 13.9115 50.9341 13.9115 51.1319C13.9115 51.3297 14.0431 51.5055 14.3062 51.6593C14.5692 51.8132 14.8511 51.8901 15.1518 51.8901L87.8772 51.8901C88.253 51.8901 88.5537 51.8132 88.7792 51.6593C89.0047 51.5055 89.1175 51.3297 89.1175 51.1319C89.1175 50.9341 89.0047 50.7692 88.7792 50.6374C88.5537 50.5055 88.253 50.4396 87.8772 50.4396L70.8516 50.4396C69.7992 46.6593 68.0703 42.5934 65.6649 38.2418C61.5307 30.7253 56.0434 24 49.2031 18.0659C40.0325 10.1538 28.87 4.15384 15.7156 0.0659332C15.5652 0.0219727 15.3773 0 15.1518 0H3.08727C2.18525 0 1.41478 0.208786 0.775845 0.626373C0.136914 1.04395 -0.107383 1.53846 0.0429534 2.10989L13.1222 36.0659C13.7236 37.6923 15.227 38.967 17.6324 39.8901ZM36.2365 43.6483L53.1494 39.5604C53.3749 39.5165 53.544 39.4286 53.6568 39.2967C53.7695 39.1648 53.7695 39.033 53.6568 38.9011C53.544 38.7692 53.3749 38.6813 53.1494 38.6374C52.9239 38.5934 52.6984 38.5934 52.4729 38.6374L32.8539 43.3846C32.7036 43.3846 32.5533 43.4286 32.4029 43.5165C31.7264 43.4286 31.0123 43.2747 30.2606 43.0549L19.0981 38.7033C17.4444 38.0879 16.3169 37.2308 15.7156 36.1319L54.9534 26.7033C57.434 29.5604 59.6515 32.5714 61.6059 35.7363L56.3065 37.4505C56.1561 37.5385 56.0434 37.6483 55.9682 37.7802C55.8931 37.9121 55.9306 38.0549 56.081 38.2088C56.2313 38.3626 56.4568 38.4396 56.7575 38.4396C56.9078 38.4396 57.0582 38.4176 57.2085 38.3736L62.2824 36.7253C63.6354 39.0549 64.8381 41.4286 65.8904 43.8462L36.2365 43.6483ZM2.63626 1.58241C2.7866 1.4945 2.93694 1.45055 3.08727 1.45055H14.9263C31.1627 6.50549 44.242 14.6154 54.1642 25.7802L15.2645 35.1429L2.52351 1.84615C2.44834 1.75824 2.48593 1.67033 2.63626 1.58241Z" fill="black"/>
</svg>
