<svg width="73" height="57" viewBox="0 0 73 57" fill="none" xmlns="http://www.w3.org/2000/svg">
<path d="M65.2412 54.9696C67.0679 53.8356 68.1725 52.0315 68.555 49.5575C68.5807 49.1688 68.4686 48.8523 68.2189 48.608L65.2379 45.9655C65.0424 45.8472 64.8287 45.8268 64.5968 45.9042L62.8735 46.7743L61.0378 45.6175L61.4403 45.2079L62.6626 45.5274C62.9052 45.643 63.1136 45.5669 63.2877 45.2991L64.1311 43.8968L66.4731 43.9606C66.7557 43.9449 66.9469 43.7729 67.0468 43.4446C67.1467 43.1164 67.1171 42.7953 66.958 42.4814C65.6628 40.4231 63.9333 39.0506 61.7693 38.3637C59.6054 37.6769 57.611 37.9166 55.786 39.0828C53.9611 40.2491 52.8574 42.0692 52.4749 44.5432L52.4856 44.7362C51.7321 44.778 51.0132 44.592 50.3288 44.1781C49.3041 43.5894 48.5642 42.5977 48.1089 41.2029C49.8557 40.3315 51.3492 39.1514 52.5894 37.6626C53.8296 36.1737 54.7076 34.5436 55.2235 32.7723L60.3805 32.4863C61.6521 32.4158 63.0157 32.7274 64.4714 33.4213C66.7021 34.4594 68.9049 36.2737 71.0799 38.8641C71.1848 39.0519 71.3314 39.1406 71.5198 39.1301C71.7082 39.1197 71.8559 39.0147 71.9629 38.8151C72.07 38.6155 72.1172 38.4031 72.1048 38.1779C72.0923 37.9527 72.01 37.7475 71.858 37.5622C69.5781 34.7841 67.2016 32.8181 64.7283 31.6643C63.1784 30.9756 61.697 30.6705 60.2842 30.7489L55.6217 31.0074C55.8985 29.1847 55.8004 27.4151 55.3273 25.6986L59.9898 25.44C61.4026 25.3617 62.8394 24.8625 64.3001 23.9424C66.6342 22.5865 68.7788 20.3698 70.734 17.2922C70.8681 17.1557 70.9281 16.9587 70.9138 16.7013C70.8995 16.4439 70.8291 16.2381 70.7024 16.0837C70.5757 15.9294 70.4182 15.8574 70.2298 15.8679C70.0414 15.8783 69.9037 15.9505 69.8167 16.0844C67.945 18.9637 65.9581 21.0426 63.8559 22.321C62.4823 23.1072 61.1597 23.5356 59.8881 23.6061L54.7311 23.8921C54.0225 22.1886 52.9705 20.6817 51.5751 19.3713C50.1797 18.0609 48.5639 17.037 46.7279 16.2998C47.0262 14.8632 47.652 13.7957 48.6053 13.0974C49.2397 12.6104 49.9336 12.346 50.6872 12.3042L50.7032 12.5938C51.3533 14.946 52.6497 16.6007 54.5924 17.558C56.5351 18.5153 58.5438 18.533 60.6185 17.6111C62.6932 16.6892 64.2604 15.1339 65.3201 12.9451C65.4435 12.6155 65.4374 12.2931 65.3019 11.9779C65.1663 11.6626 64.9572 11.5129 64.6746 11.5285L62.3541 11.8509L61.3661 10.647C61.1635 10.4 60.9462 10.3153 60.7143 10.3927L59.5401 10.9419L59.0948 10.5793L60.786 9.13001L62.5949 9.80427C62.8339 9.85556 63.0441 9.81163 63.2253 9.67249L65.8959 6.7166C66.1171 6.44614 66.1934 6.11917 66.1249 5.73569C65.5219 3.38088 64.2491 1.72483 62.3064 0.767533C60.3636 -0.189765 58.3305 -0.22225 56.2069 0.670076C54.4094 1.47977 52.9719 2.81815 51.8945 4.68523C50.817 6.5523 50.3353 8.51542 50.4495 10.5746C49.4641 10.6938 48.5871 11.0652 47.8186 11.6887C46.5969 12.6601 45.8242 14.0584 45.5002 15.8837C43.8704 15.4577 42.2313 15.2904 40.583 15.3818C37.3804 15.5594 34.8296 16.2011 32.9304 17.3069C31.0313 18.4127 29.742 20.0818 29.0627 22.314C28.2193 21.5862 27.3384 21.2478 26.42 21.2987C25.5016 21.3497 24.4698 21.6973 23.3245 22.3418C21.9909 22.9966 21.1353 23.7541 20.7578 24.6142C20.2184 24.2568 19.6543 24.0944 19.0656 24.1271C18.4769 24.1597 17.7205 24.363 16.7964 24.737C15.7311 25.1188 15.046 25.5441 14.7413 26.0128C14.3974 25.7737 14.037 25.6646 13.6603 25.6855C13.0009 25.7221 12.2345 25.9582 11.3611 26.3939C10.35 26.9018 9.69566 27.4545 9.39811 28.0519C8.93856 27.4319 8.41015 26.848 7.81289 26.3002C7.07433 25.7602 6.3447 25.3811 5.62399 25.1629C4.2839 24.85 3.14271 24.9294 2.20044 25.4012C1.25817 25.873 0.743156 26.5954 0.655394 27.5685L0.616866 28.1516C0.666824 29.0525 1.06822 29.9016 1.82104 30.6989C2.31698 31.1233 2.87999 31.4793 3.51008 31.7671C2.74157 32.3907 2.14235 33.0855 1.71243 33.8516C1.28251 34.6178 1.08717 35.3548 1.12642 36.0626C1.1407 36.32 1.17852 36.5761 1.23989 36.8309C1.57599 37.7804 2.24568 38.3565 3.24897 38.5591C4.25226 38.7616 5.37364 38.5381 6.61311 37.8884C7.25461 37.5301 7.86186 36.98 8.43485 36.2383C9.00784 35.4965 9.43955 34.7625 9.72997 34.0364C10.0918 34.5972 10.8014 35.042 11.8589 35.3706C12.7752 35.7071 13.5629 35.8571 14.2223 35.8205C14.5991 35.7996 14.9469 35.6835 15.2659 35.4722C15.6205 35.9043 16.3484 36.2512 17.4494 36.5129C18.4056 36.7181 19.1781 36.8044 19.7668 36.7717C20.3555 36.7391 20.8981 36.5153 21.3948 36.1005C21.865 36.9135 22.8009 37.6039 24.2024 38.1717C25.4083 38.6212 26.4705 38.8205 27.3888 38.7696C28.3072 38.7186 29.1453 38.2849 29.9031 37.4683C30.865 39.4804 32.3264 40.9163 34.2873 41.7757C36.2482 42.6352 38.8535 42.9748 42.1031 42.7946C43.7515 42.7032 45.362 42.3557 46.9347 41.7521C47.4621 43.5948 48.3847 44.8991 49.7027 45.6651C50.5354 46.1999 51.4481 46.472 52.4407 46.4815C52.5584 48.605 53.2551 50.5189 54.5306 52.2232C55.8061 53.9276 57.3819 55.0827 59.2579 55.6887C61.4236 56.4077 63.418 56.168 65.2412 54.9696ZM63.2738 42.492L62.5609 43.6934L61.4092 43.37C61.2644 43.3135 61.1013 43.3548 60.9201 43.4939L59.3702 44.9354C59.1925 45.1389 59.1135 45.4176 59.1331 45.7715C59.1527 46.1254 59.2839 46.3602 59.5265 46.4758L62.546 48.5353C62.7415 48.6535 62.9317 48.6752 63.1165 48.6005L64.8398 47.7303L67.1475 49.7324C66.7657 51.3673 65.9369 52.6073 64.6611 53.4527C63.1062 54.378 61.3907 54.5377 59.5148 53.9317C57.9285 53.4387 56.588 52.4803 55.4934 51.0564C54.3988 49.6325 53.805 48.0841 53.7123 46.411C53.6837 45.8962 53.7023 45.3788 53.7679 44.8588C54.0448 43.0361 54.9353 41.6312 56.4395 40.6441C57.9437 39.6571 59.6338 39.4665 61.5098 40.0725C62.7628 40.5194 63.8653 41.2328 64.8172 42.2128L63.7522 42.175C63.5638 42.1855 63.4044 42.2911 63.2738 42.492ZM6.09825 36.271C5.22484 36.7067 4.43224 36.8959 3.72045 36.8386C3.00866 36.7812 2.59496 36.5621 2.47936 36.1812C2.36376 35.8004 2.53448 35.2584 2.99151 34.5553C3.44855 33.8522 4.11378 33.2828 4.98719 32.8471C5.62869 32.4888 6.37509 32.3183 7.22638 32.3356C7.84576 32.4304 8.37274 32.5625 8.80731 32.7321C8.60394 33.3243 8.28284 33.923 7.844 34.5282C7.32167 35.3318 6.73975 35.9127 6.09825 36.271ZM21.7019 32.6947L21.4397 27.9651C21.3754 26.8068 21.9524 25.7098 23.1704 24.674C24.2979 23.7078 25.4267 23.1934 26.557 23.1307C27.2635 23.0915 27.9389 23.3446 28.5832 23.8897C28.3684 25.1281 28.2604 26.5864 28.2589 28.2647C28.2982 28.9725 28.3321 29.5838 28.3606 30.0986L28.5169 31.6391C28.6318 32.8591 28.8138 34.0109 29.0628 35.0944L29.3229 35.9513C28.7464 36.6288 28.0813 36.9884 27.3278 37.0302C26.1975 37.0928 25.0169 36.6742 23.786 35.7743C22.4608 34.8795 21.7662 33.853 21.7019 32.6947ZM30.6598 35.7804C30.1068 34.3264 29.7589 32.3125 29.6162 29.7385C29.4806 27.2933 29.5854 25.351 29.9308 23.9118L29.9201 23.7188C30.4217 21.69 31.5515 20.1266 33.3094 19.0287C35.0672 17.9307 37.5239 17.2943 40.6793 17.1193C43.0812 16.9861 45.3133 17.411 47.3755 18.3939C49.4377 19.3768 51.1084 20.7526 52.3875 22.5213C53.6666 24.29 54.365 26.2361 54.4828 28.3596C54.6148 30.7405 54.0179 32.9682 52.6921 35.0427C51.3663 37.1172 49.5292 38.7036 47.1809 39.8021L47.1102 39.806C45.4976 40.5409 43.7964 40.958 42.0068 41.0572C38.8984 41.2296 36.4236 40.8988 34.5822 40.065C32.7408 39.2312 31.4334 37.803 30.6598 35.7804ZM10.628 32.3406L10.4781 29.638C10.4531 29.1875 10.852 28.7136 11.6748 28.2161C12.4975 27.7187 13.1915 27.4543 13.7566 27.4229C13.8979 27.4151 14.041 27.4394 14.1858 27.4959L14.082 28.1794L14.1141 28.7586L14.3282 32.6195L14.371 33.3917L14.5445 33.963C14.4067 34.0352 14.2672 34.0752 14.1259 34.0831C13.5608 34.1144 12.8428 33.9444 11.9718 33.5732C11.1009 33.2019 10.653 32.7911 10.628 32.3406ZM15.9573 33.8847L15.952 33.7882C15.8471 33.6003 15.7639 33.379 15.7026 33.1243C15.6412 32.8695 15.6052 32.6455 15.5945 32.4525L15.3964 28.8811C15.3857 28.6881 15.3968 28.4615 15.4296 28.2015C15.4624 27.9415 15.5297 27.6635 15.6313 27.3674C15.733 27.0713 16.2477 26.7684 17.1753 26.4588C18.0052 26.09 18.6792 25.8913 19.1972 25.8625C19.574 25.8417 19.9344 25.9508 20.2783 26.1899L20.1745 26.8734C20.1524 27.3264 20.1502 27.7138 20.1681 28.0356L20.4304 32.7653C20.4482 33.087 20.4932 33.4718 20.5652 33.9196L20.744 34.5875C20.4286 34.8631 20.0825 35.0114 19.7057 35.0323C19.1877 35.061 18.4977 34.9702 17.6357 34.7598C16.6759 34.4903 16.1165 34.1986 15.9573 33.8847ZM5.00001 30.5227C4.04382 30.3175 3.23998 29.878 2.58848 29.2041C2.13964 28.7771 1.9063 28.4028 1.88845 28.0811L1.87775 27.888C1.91771 27.7567 2.02653 27.5893 2.20421 27.3858C2.47251 27.1127 2.89922 26.9277 3.48435 26.8307C4.06948 26.7337 4.70884 26.7628 5.40244 26.918C6.09603 27.0732 6.79213 27.4864 7.49072 28.1577C8.03733 28.6437 8.44264 29.1376 8.70667 29.6394C8.34417 29.9177 7.86216 30.1703 7.26062 30.3973C6.47426 30.6991 5.72073 30.7409 5.00001 30.5227ZM60.8256 7.28823C60.6336 7.23432 60.447 7.27694 60.2658 7.41609L57.4925 9.79675C57.2677 10.0029 57.1642 10.2668 57.1821 10.5885C57.1999 10.9103 57.3084 11.1625 57.5075 11.3451L59.2072 12.6063C59.4027 12.7245 59.5694 12.7476 59.7071 12.6754L60.816 12.2266L61.6573 13.3418C61.8128 13.5914 61.983 13.6788 62.1679 13.604L63.2275 13.5452C62.3898 14.6244 61.3712 15.4232 60.1716 15.9415C58.3742 16.7512 56.6743 16.7648 55.0719 15.9823C53.4696 15.1997 52.4283 13.8859 51.948 12.0406C51.8253 11.5311 51.7514 11.051 51.7265 10.6006C51.6301 8.86317 52.0472 7.22637 52.9777 5.69018C53.9082 4.154 55.1344 3.05325 56.6565 2.38792C58.3162 1.65041 59.9311 1.59313 61.5009 2.2161C63.0708 2.83906 64.1394 4.0062 64.7067 5.71751L62.6345 7.96248L60.8256 7.28823Z" fill="black"/>
</svg>
