<svg width="191" height="138" viewBox="0 0 191 138" fill="none" xmlns="http://www.w3.org/2000/svg">
<path d="M144.611 94.7426C168.19 103.572 181.346 102.77 185.703 98.4886C187.583 96.6156 188.01 94.1183 186.985 91.4426C183.909 83.3262 167.25 72.445 138.545 69.1449C152.3 68.1638 160.159 65.8449 161.355 62.3665C161.697 61.3854 161.612 59.7799 159.647 58.1745C152.727 52.4663 128.892 49.0771 110.439 56.6583C115.479 52.0204 119.751 46.4014 122.826 40.158C126.5 33.0228 128.208 25.5308 127.269 21.2496C126.671 18.3955 125.133 17.7712 124.193 17.682C120.434 17.1469 114.625 23.301 107.961 34.985C113.6 15.3631 105.74 6.5332 102.75 3.94668C96.5989 -1.31556 87.5433 -1.31556 81.3068 3.94668C78.1459 6.5332 69.6028 16.0766 76.6081 37.5715C71.795 30.4085 65.3703 24.5893 57.8988 20.6253C49.6974 16.3442 40.3855 15.0063 32.5258 16.7901C24.1536 18.6631 18.8569 23.747 18.686 29.9903C18.5152 34.3606 20.9927 44.35 43.2047 54.1609C17.0628 48.096 4.07736 50.1474 0.916422 54.3393C-0.194179 55.7664 -0.27961 57.5502 0.574699 59.334C3.9065 65.6665 20.3092 73.1585 46.9636 73.4261C36.4556 75.2099 28.9377 77.0829 23.9827 78.6883C14.9271 81.4532 9.20321 84.5749 8.3489 87.0722C8.00718 87.8749 8.17804 88.5885 8.77606 89.2128C11.2536 91.8885 23.4702 91.2642 43.2901 85.9128C21.7615 95.1886 8.69063 103.84 8.17804 107.854C8.09261 108.567 8.3489 109.191 8.94692 109.637C11.6807 111.51 23.5556 108.121 44.3153 97.4183C32.2695 105.981 25.6914 112.759 26.0331 116.505C26.2039 117.575 26.8874 118.467 28.0834 118.824C33.6364 120.608 52.2603 112.759 70.1154 95.1886C61.0597 109.548 59.2657 120.965 62.0849 126.316C63.2809 128.457 65.1604 129.527 67.3816 129.17C74.7287 128.1 81.3923 114.989 85.5784 100.183C85.9201 106.962 88.0559 113.116 92.1565 118.646C98.4784 127.208 107.705 131.935 114.283 134.343C121.032 136.841 127.867 138 133.847 138C143.159 138 150.591 135.146 153.154 129.794C156.999 121.767 149.395 111.6 139.827 102.859C164.089 118.646 186.387 130.954 190.317 128.724C190.744 128.457 191 127.921 191 127.386C190.829 123.284 173.572 110.529 144.611 94.7426Z" fill="#FF7EA8"/>
</svg>
